<svg width="136" height="24" viewBox="0 0 136 24" fill="none" xmlns="http://www.w3.org/2000/svg">
<path d="M122.266 23.488V20.3545H127.358V3.28725H122.333V0.153809H135.933V3.28725H130.908V20.3545H136V23.488H122.266Z" fill="url(#paint0_linear_58_267)"/>
<path d="M102.617 23.446L109.618 0.111816H113.838L120.839 23.446H116.987L115.413 17.8458H108.043L106.469 23.446H102.617ZM111.628 5.11199L108.847 15.0123H114.609L111.828 5.11199H111.628Z" fill="url(#paint1_linear_58_267)"/>
<path d="M96.5543 23.8882C95.3766 23.8882 94.3233 23.6261 93.3944 23.102C92.4655 22.5779 91.7357 21.8408 91.2049 20.8909C90.6741 19.9245 90.4087 18.7944 90.4087 17.5005C90.4087 16.2066 90.6741 15.0846 91.2049 14.1347C91.7357 13.1683 92.4655 12.4231 93.3944 11.899C94.3233 11.3749 95.3849 11.1128 96.5792 11.1128C97.7735 11.1128 98.8268 11.3749 99.7391 11.899C100.668 12.4231 101.389 13.1683 101.904 14.1347C102.434 15.0846 102.7 16.2066 102.7 17.5005C102.7 18.7944 102.434 19.9245 101.904 20.8909C101.373 21.8408 100.643 22.5779 99.7142 23.102C98.8019 23.6261 97.7486 23.8882 96.5543 23.8882ZM96.5543 21.4068C97.1846 21.4068 97.7652 21.2676 98.296 20.9891C98.8267 20.7107 99.2497 20.2848 99.5649 19.7116C99.8966 19.122 100.063 18.3849 100.063 17.5005C100.063 16.5996 99.8966 15.8626 99.5649 15.2894C99.2497 14.7161 98.8267 14.2903 98.296 14.0118C97.7817 13.7334 97.2095 13.5942 96.5792 13.5942C95.9489 13.5942 95.3683 13.7334 94.8375 14.0118C94.3067 14.2903 93.8754 14.7161 93.5437 15.2894C93.2285 15.8626 93.071 16.5996 93.071 17.5005C93.071 18.8435 93.411 19.8344 94.0911 20.4732C94.7877 21.0956 95.6088 21.4068 96.5543 21.4068Z" fill="#022C22"/>
<path d="M83.6294 23.8882C82.0072 23.8882 80.7162 23.5114 79.7561 22.758C78.7961 22.0046 78.2499 21.0055 78.1174 19.7607H80.8238C80.9231 20.334 81.2127 20.8008 81.6928 21.1611C82.1893 21.5214 82.8431 21.7016 83.6542 21.7016C84.4322 21.7016 85.0281 21.546 85.4419 21.2348C85.8722 20.9072 86.0874 20.5305 86.0874 20.1047C86.0874 19.4823 85.8309 19.0564 85.3177 18.8271C84.8212 18.5978 84.0846 18.4259 83.108 18.3112C82.2638 18.2129 81.4941 18.0246 80.7989 17.7462C80.1203 17.4513 79.5823 17.0582 79.1851 16.5669C78.7878 16.0592 78.5892 15.4286 78.5892 14.6752C78.5892 13.6105 79.0113 12.7507 79.8554 12.0955C80.6996 11.4404 81.8748 11.1128 83.3811 11.1128C84.8874 11.1128 86.0543 11.4486 86.8819 12.1201C87.7096 12.7916 88.1896 13.7088 88.322 14.8717H85.7895C85.7233 14.3803 85.4667 13.9954 85.0198 13.717C84.5729 13.4222 84.0184 13.2748 83.3563 13.2748C82.6776 13.2748 82.1397 13.4058 81.7424 13.6679C81.3452 13.9135 81.1465 14.2411 81.1465 14.6506C81.1465 15.535 82.1066 16.0755 84.0266 16.2721C84.937 16.3703 85.7481 16.5423 86.4598 16.788C87.1716 17.0173 87.7344 17.3858 88.1482 17.8936C88.562 18.3849 88.7689 19.081 88.7689 19.9818C88.7855 20.7189 88.5703 21.3822 88.1234 21.9719C87.693 22.5615 87.0888 23.0283 86.3109 23.3722C85.5495 23.7162 84.6556 23.8882 83.6294 23.8882Z" fill="#022C22"/>
<path d="M65.0068 23.6163V21.3519H68.0376V14.4848C68.0376 13.9433 67.7704 13.6726 67.2361 13.6726H65.2573V11.4082H68.238C68.9226 11.4082 69.482 11.6051 69.9162 11.9989C70.3503 12.3763 70.5674 12.9096 70.5674 13.5987V13.8941H70.6926C70.8763 12.9752 71.2687 12.286 71.8699 11.8266C72.4877 11.3507 73.3811 11.1128 74.55 11.1128H76.4786V13.8695H73.7735C72.7883 13.8695 72.0285 14.2059 71.4942 14.8786C70.9598 15.5514 70.6926 16.3554 70.6926 17.2907V21.3519H74.55V23.6163H65.0068Z" fill="#022C22"/>
<path d="M57.8916 23.8882C56.7121 23.8882 55.672 23.6261 54.771 23.102C53.8701 22.5615 53.1657 21.8163 52.6579 20.8663C52.1501 19.9163 51.8962 18.8108 51.8962 17.5496C51.8962 16.2721 52.1419 15.1501 52.6334 14.1838C53.1412 13.2175 53.8455 12.464 54.7465 11.9235C55.6638 11.383 56.7203 11.1128 57.9161 11.1128C59.0955 11.1128 60.1111 11.383 60.9629 11.9235C61.8147 12.4477 62.4699 13.1519 62.9286 14.0364C63.4036 14.9208 63.6412 15.8954 63.6412 16.96C63.6412 17.1238 63.6412 17.3039 63.6412 17.5005C63.6412 17.6806 63.633 17.8854 63.6166 18.1147H54.4516C54.5335 19.2448 54.9021 20.1047 55.5573 20.6943C56.2125 21.2676 56.9824 21.5542 57.867 21.5542C58.6369 21.5542 59.243 21.3986 59.6852 21.0874C60.1439 20.7598 60.4797 20.3176 60.6926 19.7607H63.3217C63.0269 20.9236 62.4126 21.9063 61.4789 22.7089C60.5452 23.4951 59.3494 23.8882 57.8916 23.8882ZM57.8916 13.373C57.0889 13.373 56.3763 13.6187 55.7539 14.1101C55.1314 14.5851 54.7301 15.2566 54.5499 16.1247H61.0366C60.9711 15.3057 60.6517 14.6424 60.0784 14.1347C59.505 13.6269 58.7761 13.373 57.8916 13.373Z" fill="#022C22"/>
<path d="M43.0602 23.6165L37.6929 11.3848H40.6886L44.6579 20.8545L48.6522 11.3848H51.6229L46.2306 23.6165H43.0602Z" fill="#022C22"/>
<path d="M26.2212 23.6163V11.4082H28.5209L28.7459 13.2295H28.8709C29.2042 12.6388 29.7208 12.1383 30.4207 11.7281C31.1206 11.3179 31.9288 11.1128 32.8454 11.1128C34.3619 11.1128 35.5034 11.564 36.27 12.4665C37.0365 13.369 37.4198 14.6981 37.4198 16.4539V23.6163H34.7702V16.7738C34.7702 15.7565 34.5535 14.9689 34.1202 14.411C33.687 13.8531 33.0037 13.5741 32.0705 13.5741C31.1539 13.5741 30.3874 13.8777 29.7708 14.4848C29.1708 15.0919 28.8709 15.9698 28.8709 17.1184V23.6163H26.2212Z" fill="#022C22"/>
<path d="M18.7098 23.8882C17.5321 23.8882 16.4788 23.6261 15.5499 23.102C14.621 22.5779 13.8912 21.8408 13.3604 20.8909C12.8296 19.9245 12.5642 18.7944 12.5642 17.5005C12.5642 16.2066 12.8296 15.0846 13.3604 14.1347C13.8912 13.1683 14.621 12.4231 15.5499 11.899C16.4788 11.3749 17.5404 11.1128 18.7347 11.1128C19.929 11.1128 20.9823 11.3749 21.8946 11.899C22.8235 12.4231 23.545 13.1683 24.0592 14.1347C24.59 15.0846 24.8554 16.2066 24.8554 17.5005C24.8554 18.7944 24.59 19.9245 24.0592 20.8909C23.5284 21.8408 22.7986 22.5779 21.8697 23.102C20.9574 23.6261 19.9041 23.8882 18.7098 23.8882ZM18.7098 21.4068C19.3401 21.4068 19.9207 21.2676 20.4515 20.9891C20.9823 20.7107 21.4052 20.2848 21.7204 19.7116C22.0521 19.122 22.218 18.3849 22.218 17.5005C22.218 16.5996 22.0521 15.8626 21.7204 15.2894C21.4052 14.7161 20.9823 14.2903 20.4515 14.0118C19.9373 13.7334 19.365 13.5942 18.7347 13.5942C18.1044 13.5942 17.5238 13.7334 16.993 14.0118C16.4622 14.2903 16.031 14.7161 15.6992 15.2894C15.3841 15.8626 15.2265 16.5996 15.2265 17.5005C15.2265 18.8435 15.5665 19.8344 16.2466 20.4732C16.9433 21.0956 17.7643 21.4068 18.7098 21.4068Z" fill="#022C22"/>
<path d="M6.02303 23.8882C4.86862 23.8882 3.83132 23.6261 2.91113 23.102C2.00768 22.5779 1.29663 21.8408 0.777975 20.8909C0.259325 19.9245 0 18.7944 0 17.5005C0 16.2066 0.259325 15.0846 0.777975 14.1347C1.31336 13.1847 2.03277 12.4477 2.93623 11.9235C3.83968 11.383 4.86862 11.1128 6.02303 11.1128C7.61245 11.1128 8.89234 11.5059 9.86272 12.2921C10.8498 13.0619 11.4772 14.1265 11.7449 15.4859H8.95926C8.79196 14.8963 8.44898 14.4295 7.93033 14.0855C7.42841 13.7416 6.78428 13.5696 5.99794 13.5696C5.4291 13.5696 4.88535 13.717 4.3667 14.0118C3.86478 14.3066 3.45488 14.7489 3.137 15.3385C2.83584 15.9117 2.68527 16.6324 2.68527 17.5005C2.68527 18.3522 2.83584 19.0728 3.137 19.6625C3.45488 20.2521 3.86478 20.7025 4.3667 21.0137C4.88535 21.3085 5.4291 21.4559 5.99794 21.4559C6.80101 21.4559 7.44514 21.2839 7.93033 20.94C8.41552 20.596 8.7585 20.1211 8.95926 19.515H11.7449C11.4103 20.8581 10.7578 21.9227 9.78743 22.7089C8.81705 23.4951 7.56225 23.8882 6.02303 23.8882Z" fill="#022C22"/>
<path fill-rule="evenodd" clip-rule="evenodd" d="M4.3702 0.111816C1.95661 0.111816 0 2.05896 0 4.46088V9.8972H16.3883C18.8019 9.8972 20.7585 7.95006 20.7585 5.54814V4.46088C20.7585 2.05896 18.8019 0.111816 16.3883 0.111816H4.3702ZM4.91648 7.34287C5.82158 7.34287 6.5553 6.6127 6.5553 5.71197C6.5553 4.81125 5.82158 4.08108 4.91648 4.08108C4.01138 4.08108 3.27765 4.81125 3.27765 5.71197C3.27765 6.6127 4.01138 7.34287 4.91648 7.34287ZM12.0181 5.00451C12.0181 5.90523 11.2843 6.63541 10.3792 6.63541C9.47413 6.63541 8.7404 5.90523 8.7404 5.00451C8.7404 4.10379 9.47413 3.37361 10.3792 3.37361C11.2843 3.37361 12.0181 4.10379 12.0181 5.00451ZM15.842 6.63541C16.7471 6.63541 17.4808 5.90523 17.4808 5.00451C17.4808 4.10379 16.7471 3.37361 15.842 3.37361C14.9369 3.37361 14.2032 4.10379 14.2032 5.00451C14.2032 5.90523 14.9369 6.63541 15.842 6.63541Z" fill="url(#paint2_linear_58_267)"/>
<defs>
<linearGradient id="paint0_linear_58_267" x1="122.324" y1="0.237136" x2="140.974" y2="18.3615" gradientUnits="userSpaceOnUse">
<stop stop-color="#059669"/>
<stop offset="1" stop-color="#047857"/>
</linearGradient>
<linearGradient id="paint1_linear_58_267" x1="102.694" y1="0.195143" x2="120.763" y2="23.4958" gradientUnits="userSpaceOnUse">
<stop stop-color="#059669"/>
<stop offset="1" stop-color="#047857"/>
</linearGradient>
<linearGradient id="paint2_linear_58_267" x1="0.0872878" y1="0.14676" x2="4.21785" y2="14.6156" gradientUnits="userSpaceOnUse">
<stop stop-color="#059669"/>
<stop offset="1" stop-color="#047857"/>
</linearGradient>
</defs>
</svg>
